<mxfile host="app.diagrams.net" modified="2024-06-20T04:06:42.228Z" agent="Mozilla/5.0 (Windows NT 10.0; Win64; x64) AppleWebKit/537.36 (KHTML, like Gecko) Chrome/126.0.0.0 Safari/537.36" etag="IzP80bs_7zHEvMKo1ai3" version="24.5.5" type="github">
  <diagram name="Page-1" id="B_gv9GOFP5bBfRUmPWNx">
    <mxGraphModel dx="6480" dy="3560" grid="1" gridSize="10" guides="1" tooltips="1" connect="1" arrows="1" fold="1" page="1" pageScale="1" pageWidth="850" pageHeight="1100" math="0" shadow="0">
      <root>
        <mxCell id="0" />
        <mxCell id="1" parent="0" />
        <mxCell id="cU2UB0Qx6bh0rX04pfWm-8" style="edgeStyle=orthogonalEdgeStyle;rounded=0;orthogonalLoop=1;jettySize=auto;html=1;exitX=0.5;exitY=1;exitDx=0;exitDy=0;entryX=0.5;entryY=0;entryDx=0;entryDy=0;strokeWidth=10;fontStyle=1;sketch=1;curveFitting=1;jiggle=2;" parent="1" source="ERC3TZl0UmH6vnA0-MCl-3" target="ERC3TZl0UmH6vnA0-MCl-21" edge="1">
          <mxGeometry relative="1" as="geometry" />
        </mxCell>
        <mxCell id="ERC3TZl0UmH6vnA0-MCl-3" value="&lt;font style=&quot;font-size: 25px;&quot;&gt;&lt;span&gt;Daycare Center Switch&lt;/span&gt;&lt;/font&gt;" style="rounded=1;whiteSpace=wrap;html=1;strokeWidth=10;fontStyle=1;sketch=1;curveFitting=1;jiggle=2;" parent="1" vertex="1">
          <mxGeometry x="-1190" y="180" width="337.43" height="150" as="geometry" />
        </mxCell>
        <mxCell id="cU2UB0Qx6bh0rX04pfWm-28" style="edgeStyle=orthogonalEdgeStyle;rounded=0;orthogonalLoop=1;jettySize=auto;html=1;entryX=0.5;entryY=0;entryDx=0;entryDy=0;fontStyle=1;strokeWidth=10;sketch=1;curveFitting=1;jiggle=2;" parent="1" source="ERC3TZl0UmH6vnA0-MCl-6" target="ERC3TZl0UmH6vnA0-MCl-26" edge="1">
          <mxGeometry relative="1" as="geometry" />
        </mxCell>
        <mxCell id="cU2UB0Qx6bh0rX04pfWm-36" style="edgeStyle=orthogonalEdgeStyle;rounded=0;orthogonalLoop=1;jettySize=auto;html=1;entryX=1;entryY=0.5;entryDx=0;entryDy=0;strokeWidth=10;sketch=1;curveFitting=1;jiggle=2;" parent="1" source="ERC3TZl0UmH6vnA0-MCl-6" target="ERC3TZl0UmH6vnA0-MCl-3" edge="1">
          <mxGeometry relative="1" as="geometry" />
        </mxCell>
        <mxCell id="ERC3TZl0UmH6vnA0-MCl-6" value="&lt;font style=&quot;font-size: 25px;&quot;&gt;&lt;span&gt;Health Center Switch&lt;/span&gt;&lt;/font&gt;" style="rounded=1;whiteSpace=wrap;html=1;strokeWidth=10;fontStyle=1;sketch=1;curveFitting=1;jiggle=2;" parent="1" vertex="1">
          <mxGeometry x="-452.57" y="190" width="325" height="150" as="geometry" />
        </mxCell>
        <mxCell id="cU2UB0Qx6bh0rX04pfWm-26" style="edgeStyle=orthogonalEdgeStyle;rounded=0;orthogonalLoop=1;jettySize=auto;html=1;entryX=0.5;entryY=0;entryDx=0;entryDy=0;fontStyle=1;strokeWidth=10;sketch=1;curveFitting=1;jiggle=2;" parent="1" source="ERC3TZl0UmH6vnA0-MCl-7" target="ERC3TZl0UmH6vnA0-MCl-36" edge="1">
          <mxGeometry relative="1" as="geometry" />
        </mxCell>
        <mxCell id="cU2UB0Qx6bh0rX04pfWm-38" style="edgeStyle=orthogonalEdgeStyle;rounded=0;orthogonalLoop=1;jettySize=auto;html=1;entryX=0;entryY=0.5;entryDx=0;entryDy=0;strokeWidth=10;sketch=1;curveFitting=1;jiggle=2;" parent="1" source="ERC3TZl0UmH6vnA0-MCl-7" target="ERC3TZl0UmH6vnA0-MCl-10" edge="1">
          <mxGeometry relative="1" as="geometry" />
        </mxCell>
        <mxCell id="ERC3TZl0UmH6vnA0-MCl-7" value="&lt;font style=&quot;font-size: 25px;&quot;&gt;&lt;span&gt;House Hold 1&lt;/span&gt;&lt;/font&gt;&lt;div&gt;&lt;font style=&quot;font-size: 25px;&quot;&gt;&lt;span&gt;Switch&lt;/span&gt;&lt;/font&gt;&lt;/div&gt;" style="rounded=1;whiteSpace=wrap;html=1;strokeWidth=10;fontStyle=1;sketch=1;curveFitting=1;jiggle=2;" parent="1" vertex="1">
          <mxGeometry x="885" y="190" width="290" height="150" as="geometry" />
        </mxCell>
        <mxCell id="cU2UB0Qx6bh0rX04pfWm-27" style="edgeStyle=orthogonalEdgeStyle;rounded=0;orthogonalLoop=1;jettySize=auto;html=1;entryX=0.5;entryY=0;entryDx=0;entryDy=0;fontStyle=1;fontSize=10;strokeWidth=10;sketch=1;curveFitting=1;jiggle=2;" parent="1" source="ERC3TZl0UmH6vnA0-MCl-8" target="ERC3TZl0UmH6vnA0-MCl-30" edge="1">
          <mxGeometry relative="1" as="geometry" />
        </mxCell>
        <mxCell id="cU2UB0Qx6bh0rX04pfWm-35" style="edgeStyle=orthogonalEdgeStyle;rounded=0;orthogonalLoop=1;jettySize=auto;html=1;entryX=1;entryY=0.5;entryDx=0;entryDy=0;strokeWidth=10;sketch=1;curveFitting=1;jiggle=2;" parent="1" source="ERC3TZl0UmH6vnA0-MCl-8" target="ERC3TZl0UmH6vnA0-MCl-6" edge="1">
          <mxGeometry relative="1" as="geometry" />
        </mxCell>
        <mxCell id="cU2UB0Qx6bh0rX04pfWm-37" style="edgeStyle=orthogonalEdgeStyle;rounded=0;orthogonalLoop=1;jettySize=auto;html=1;entryX=0;entryY=0.5;entryDx=0;entryDy=0;strokeWidth=10;sketch=1;curveFitting=1;jiggle=2;" parent="1" source="ERC3TZl0UmH6vnA0-MCl-8" target="ERC3TZl0UmH6vnA0-MCl-7" edge="1">
          <mxGeometry relative="1" as="geometry" />
        </mxCell>
        <mxCell id="ERC3TZl0UmH6vnA0-MCl-8" value="&lt;font style=&quot;font-size: 25px;&quot;&gt;&lt;span&gt;Brgy. Hall Switch&lt;/span&gt;&lt;/font&gt;" style="rounded=1;whiteSpace=wrap;html=1;strokeWidth=10;fontStyle=1;sketch=1;curveFitting=1;jiggle=2;" parent="1" vertex="1">
          <mxGeometry x="290" y="140" width="290" height="150" as="geometry" />
        </mxCell>
        <mxCell id="cU2UB0Qx6bh0rX04pfWm-25" style="edgeStyle=orthogonalEdgeStyle;rounded=0;orthogonalLoop=1;jettySize=auto;html=1;entryX=0.5;entryY=0;entryDx=0;entryDy=0;fontStyle=1;strokeWidth=10;sketch=1;curveFitting=1;jiggle=2;" parent="1" source="ERC3TZl0UmH6vnA0-MCl-10" target="ERC3TZl0UmH6vnA0-MCl-37" edge="1">
          <mxGeometry relative="1" as="geometry" />
        </mxCell>
        <mxCell id="ERC3TZl0UmH6vnA0-MCl-10" value="&lt;font style=&quot;font-size: 25px;&quot;&gt;&lt;span&gt;House Hold 2&lt;/span&gt;&lt;/font&gt;&lt;div&gt;&lt;font style=&quot;font-size: 25px;&quot;&gt;&lt;span&gt;Switch&lt;/span&gt;&lt;/font&gt;&lt;/div&gt;" style="rounded=1;whiteSpace=wrap;html=1;strokeWidth=10;fontStyle=1;sketch=1;curveFitting=1;jiggle=2;" parent="1" vertex="1">
          <mxGeometry x="1525" y="180" width="290" height="150" as="geometry" />
        </mxCell>
        <mxCell id="ERC3TZl0UmH6vnA0-MCl-19" style="edgeStyle=orthogonalEdgeStyle;rounded=0;orthogonalLoop=1;jettySize=auto;html=1;entryX=0.5;entryY=0;entryDx=0;entryDy=0;strokeWidth=10;fontStyle=1;sketch=1;curveFitting=1;jiggle=2;" parent="1" source="ERC3TZl0UmH6vnA0-MCl-13" target="ERC3TZl0UmH6vnA0-MCl-17" edge="1">
          <mxGeometry relative="1" as="geometry" />
        </mxCell>
        <mxCell id="ERC3TZl0UmH6vnA0-MCl-13" value="&lt;font style=&quot;font-size: 50px;&quot;&gt;INTERNET&lt;/font&gt;" style="text;strokeColor=none;align=center;fillColor=none;html=1;verticalAlign=middle;whiteSpace=wrap;rounded=0;fontStyle=1;strokeWidth=10;sketch=1;curveFitting=1;jiggle=2;" parent="1" vertex="1">
          <mxGeometry x="270" y="-700" width="310" height="140" as="geometry" />
        </mxCell>
        <mxCell id="ERC3TZl0UmH6vnA0-MCl-20" style="edgeStyle=orthogonalEdgeStyle;rounded=0;orthogonalLoop=1;jettySize=auto;html=1;entryX=0.5;entryY=0;entryDx=0;entryDy=0;strokeWidth=10;fontStyle=1;sketch=1;curveFitting=1;jiggle=2;" parent="1" source="ERC3TZl0UmH6vnA0-MCl-17" target="ERC3TZl0UmH6vnA0-MCl-18" edge="1">
          <mxGeometry relative="1" as="geometry" />
        </mxCell>
        <mxCell id="ERC3TZl0UmH6vnA0-MCl-17" value="&lt;font style=&quot;font-size: 50px;&quot;&gt;ISP&lt;/font&gt;" style="text;strokeColor=none;align=center;fillColor=none;html=1;verticalAlign=middle;whiteSpace=wrap;rounded=0;fontStyle=1;strokeWidth=10;sketch=1;curveFitting=1;jiggle=2;" parent="1" vertex="1">
          <mxGeometry x="320" y="-410" width="210" height="100" as="geometry" />
        </mxCell>
        <mxCell id="cU2UB0Qx6bh0rX04pfWm-34" style="edgeStyle=orthogonalEdgeStyle;rounded=0;orthogonalLoop=1;jettySize=auto;html=1;entryX=0.5;entryY=0;entryDx=0;entryDy=0;strokeWidth=10;sketch=1;curveFitting=1;jiggle=2;" parent="1" source="ERC3TZl0UmH6vnA0-MCl-18" target="ERC3TZl0UmH6vnA0-MCl-8" edge="1">
          <mxGeometry relative="1" as="geometry" />
        </mxCell>
        <mxCell id="ERC3TZl0UmH6vnA0-MCl-18" value="&lt;font style=&quot;font-size: 50px;&quot;&gt;Core Switch&lt;/font&gt;" style="text;strokeColor=none;align=center;fillColor=none;html=1;verticalAlign=middle;whiteSpace=wrap;rounded=0;fontStyle=1;strokeWidth=10;sketch=1;curveFitting=1;jiggle=2;" parent="1" vertex="1">
          <mxGeometry x="270" y="-180" width="310" height="110" as="geometry" />
        </mxCell>
        <mxCell id="cU2UB0Qx6bh0rX04pfWm-9" style="edgeStyle=orthogonalEdgeStyle;rounded=0;orthogonalLoop=1;jettySize=auto;html=1;entryX=0.5;entryY=0;entryDx=0;entryDy=0;strokeWidth=10;fontStyle=1;sketch=1;curveFitting=1;jiggle=2;" parent="1" source="ERC3TZl0UmH6vnA0-MCl-21" target="ERC3TZl0UmH6vnA0-MCl-22" edge="1">
          <mxGeometry relative="1" as="geometry" />
        </mxCell>
        <mxCell id="ERC3TZl0UmH6vnA0-MCl-21" value="&lt;font style=&quot;font-size: 40px;&quot;&gt;Daycare Center Workstation&lt;/font&gt;" style="text;strokeColor=none;align=center;fillColor=none;html=1;verticalAlign=middle;whiteSpace=wrap;rounded=0;fontStyle=1;strokeWidth=10;sketch=1;curveFitting=1;jiggle=2;" parent="1" vertex="1">
          <mxGeometry x="-1165.07" y="530" width="335" height="110" as="geometry" />
        </mxCell>
        <mxCell id="834IOeLFdVtqfjwjfX9y-3" style="edgeStyle=orthogonalEdgeStyle;rounded=0;orthogonalLoop=1;jettySize=auto;html=1;entryX=0.5;entryY=0;entryDx=0;entryDy=0;strokeWidth=10;" edge="1" parent="1" source="ERC3TZl0UmH6vnA0-MCl-22" target="ERC3TZl0UmH6vnA0-MCl-23">
          <mxGeometry relative="1" as="geometry" />
        </mxCell>
        <mxCell id="ERC3TZl0UmH6vnA0-MCl-22" value="&lt;font style=&quot;font-size: 40px;&quot;&gt;Wireless Application Protocol&lt;/font&gt;" style="text;strokeColor=none;align=center;fillColor=none;html=1;verticalAlign=middle;whiteSpace=wrap;rounded=0;fontStyle=1;strokeWidth=10;sketch=1;curveFitting=1;jiggle=2;" parent="1" vertex="1">
          <mxGeometry x="-1280" y="890" width="585.07" height="110" as="geometry" />
        </mxCell>
        <mxCell id="834IOeLFdVtqfjwjfX9y-4" style="edgeStyle=orthogonalEdgeStyle;rounded=0;orthogonalLoop=1;jettySize=auto;html=1;entryX=0.5;entryY=0;entryDx=0;entryDy=0;strokeWidth=10;" edge="1" parent="1" source="ERC3TZl0UmH6vnA0-MCl-23" target="ERC3TZl0UmH6vnA0-MCl-24">
          <mxGeometry relative="1" as="geometry" />
        </mxCell>
        <mxCell id="ERC3TZl0UmH6vnA0-MCl-23" value="&lt;font style=&quot;font-size: 40px;&quot;&gt;Wireless Device&lt;/font&gt;" style="text;strokeColor=none;align=center;fillColor=none;html=1;verticalAlign=middle;whiteSpace=wrap;rounded=0;fontStyle=1;strokeWidth=10;sketch=1;curveFitting=1;jiggle=2;" parent="1" vertex="1">
          <mxGeometry x="-1154.9599999999998" y="1200" width="335" height="110" as="geometry" />
        </mxCell>
        <mxCell id="834IOeLFdVtqfjwjfX9y-5" style="edgeStyle=orthogonalEdgeStyle;rounded=0;orthogonalLoop=1;jettySize=auto;html=1;entryX=0.5;entryY=0;entryDx=0;entryDy=0;strokeWidth=10;" edge="1" parent="1" source="ERC3TZl0UmH6vnA0-MCl-24" target="ERC3TZl0UmH6vnA0-MCl-25">
          <mxGeometry relative="1" as="geometry" />
        </mxCell>
        <mxCell id="ERC3TZl0UmH6vnA0-MCl-24" value="&lt;font style=&quot;font-size: 40px;&quot;&gt;Laptop&lt;/font&gt;" style="text;strokeColor=none;align=center;fillColor=none;html=1;verticalAlign=middle;whiteSpace=wrap;rounded=0;fontStyle=1;strokeWidth=10;sketch=1;curveFitting=1;jiggle=2;" parent="1" vertex="1">
          <mxGeometry x="-1154.96" y="1440" width="335" height="110" as="geometry" />
        </mxCell>
        <mxCell id="ERC3TZl0UmH6vnA0-MCl-25" value="&lt;font style=&quot;font-size: 40px;&quot;&gt;Printers&lt;/font&gt;" style="text;strokeColor=none;align=center;fillColor=none;html=1;verticalAlign=middle;whiteSpace=wrap;rounded=0;fontStyle=1;strokeWidth=10;sketch=1;curveFitting=1;jiggle=2;" parent="1" vertex="1">
          <mxGeometry x="-1160" y="1770" width="335" height="110" as="geometry" />
        </mxCell>
        <mxCell id="cU2UB0Qx6bh0rX04pfWm-14" style="edgeStyle=orthogonalEdgeStyle;rounded=0;orthogonalLoop=1;jettySize=auto;html=1;entryX=0.5;entryY=0;entryDx=0;entryDy=0;fontStyle=1;strokeWidth=10;sketch=1;curveFitting=1;jiggle=2;" parent="1" source="ERC3TZl0UmH6vnA0-MCl-26" target="ERC3TZl0UmH6vnA0-MCl-27" edge="1">
          <mxGeometry relative="1" as="geometry" />
        </mxCell>
        <mxCell id="ERC3TZl0UmH6vnA0-MCl-26" value="&lt;font style=&quot;font-size: 40px;&quot;&gt;Health Center Workstation&lt;/font&gt;" style="text;strokeColor=none;align=center;fillColor=none;html=1;verticalAlign=middle;whiteSpace=wrap;rounded=0;fontStyle=1;strokeWidth=10;sketch=1;curveFitting=1;jiggle=2;" parent="1" vertex="1">
          <mxGeometry x="-457.57" y="470" width="335" height="110" as="geometry" />
        </mxCell>
        <mxCell id="cU2UB0Qx6bh0rX04pfWm-15" style="edgeStyle=orthogonalEdgeStyle;rounded=0;orthogonalLoop=1;jettySize=auto;html=1;entryX=0.5;entryY=0;entryDx=0;entryDy=0;fontStyle=1;strokeWidth=10;sketch=1;curveFitting=1;jiggle=2;" parent="1" source="ERC3TZl0UmH6vnA0-MCl-27" target="ERC3TZl0UmH6vnA0-MCl-28" edge="1">
          <mxGeometry relative="1" as="geometry" />
        </mxCell>
        <mxCell id="ERC3TZl0UmH6vnA0-MCl-27" value="&lt;font style=&quot;font-size: 40px;&quot;&gt;WAP&lt;/font&gt;" style="text;strokeColor=none;align=center;fillColor=none;html=1;verticalAlign=middle;whiteSpace=wrap;rounded=0;fontStyle=1;strokeWidth=10;sketch=1;curveFitting=1;jiggle=2;" parent="1" vertex="1">
          <mxGeometry x="-457.57" y="700" width="335" height="110" as="geometry" />
        </mxCell>
        <mxCell id="cU2UB0Qx6bh0rX04pfWm-16" style="edgeStyle=orthogonalEdgeStyle;rounded=0;orthogonalLoop=1;jettySize=auto;html=1;entryX=0.5;entryY=0;entryDx=0;entryDy=0;fontStyle=1;fontSize=10;strokeWidth=10;sketch=1;curveFitting=1;jiggle=2;" parent="1" source="ERC3TZl0UmH6vnA0-MCl-28" target="ERC3TZl0UmH6vnA0-MCl-29" edge="1">
          <mxGeometry relative="1" as="geometry" />
        </mxCell>
        <mxCell id="ERC3TZl0UmH6vnA0-MCl-28" value="&lt;font style=&quot;font-size: 40px;&quot;&gt;Wireless Device&lt;/font&gt;" style="text;strokeColor=none;align=center;fillColor=none;html=1;verticalAlign=middle;whiteSpace=wrap;rounded=0;fontStyle=1;strokeWidth=10;sketch=1;curveFitting=1;jiggle=2;" parent="1" vertex="1">
          <mxGeometry x="-457.57" y="950" width="335" height="110" as="geometry" />
        </mxCell>
        <mxCell id="ERC3TZl0UmH6vnA0-MCl-29" value="&lt;font style=&quot;font-size: 40px;&quot;&gt;Printers&lt;/font&gt;" style="text;strokeColor=none;align=center;fillColor=none;html=1;verticalAlign=middle;whiteSpace=wrap;rounded=0;fontStyle=1;strokeWidth=10;sketch=1;curveFitting=1;jiggle=2;" parent="1" vertex="1">
          <mxGeometry x="-457.57" y="1210" width="335" height="110" as="geometry" />
        </mxCell>
        <mxCell id="cU2UB0Qx6bh0rX04pfWm-33" style="edgeStyle=orthogonalEdgeStyle;rounded=0;orthogonalLoop=1;jettySize=auto;html=1;entryX=0.5;entryY=0;entryDx=0;entryDy=0;fontStyle=1;strokeWidth=10;sketch=1;curveFitting=1;jiggle=2;" parent="1" source="ERC3TZl0UmH6vnA0-MCl-30" target="ERC3TZl0UmH6vnA0-MCl-31" edge="1">
          <mxGeometry relative="1" as="geometry" />
        </mxCell>
        <mxCell id="ERC3TZl0UmH6vnA0-MCl-30" value="&lt;font style=&quot;font-size: 40px;&quot;&gt;Brgy. Hall&amp;nbsp; Workstation&lt;/font&gt;" style="text;strokeColor=none;align=center;fillColor=none;html=1;verticalAlign=middle;whiteSpace=wrap;rounded=0;fontStyle=1;strokeWidth=10;sketch=1;curveFitting=1;jiggle=2;" parent="1" vertex="1">
          <mxGeometry x="265" y="490" width="335" height="110" as="geometry" />
        </mxCell>
        <mxCell id="cU2UB0Qx6bh0rX04pfWm-17" style="edgeStyle=orthogonalEdgeStyle;rounded=0;orthogonalLoop=1;jettySize=auto;html=1;entryX=0.5;entryY=0;entryDx=0;entryDy=0;fontStyle=1;strokeWidth=10;sketch=1;curveFitting=1;jiggle=2;" parent="1" source="ERC3TZl0UmH6vnA0-MCl-31" target="ERC3TZl0UmH6vnA0-MCl-32" edge="1">
          <mxGeometry relative="1" as="geometry" />
        </mxCell>
        <mxCell id="ERC3TZl0UmH6vnA0-MCl-31" value="&lt;font style=&quot;font-size: 40px;&quot;&gt;WAP&lt;/font&gt;" style="text;strokeColor=none;align=center;fillColor=none;html=1;verticalAlign=middle;whiteSpace=wrap;rounded=0;fontStyle=1;strokeWidth=10;sketch=1;curveFitting=1;jiggle=2;" parent="1" vertex="1">
          <mxGeometry x="265" y="760" width="335" height="110" as="geometry" />
        </mxCell>
        <mxCell id="cU2UB0Qx6bh0rX04pfWm-18" style="edgeStyle=orthogonalEdgeStyle;rounded=0;orthogonalLoop=1;jettySize=auto;html=1;entryX=0.5;entryY=0;entryDx=0;entryDy=0;fontStyle=1;fontSize=10;strokeWidth=10;sketch=1;curveFitting=1;jiggle=2;" parent="1" source="ERC3TZl0UmH6vnA0-MCl-32" target="ERC3TZl0UmH6vnA0-MCl-33" edge="1">
          <mxGeometry relative="1" as="geometry" />
        </mxCell>
        <mxCell id="ERC3TZl0UmH6vnA0-MCl-32" value="&lt;font style=&quot;font-size: 40px;&quot;&gt;Wireless Device&lt;/font&gt;" style="text;strokeColor=none;align=center;fillColor=none;html=1;verticalAlign=middle;whiteSpace=wrap;rounded=0;fontStyle=1;strokeWidth=10;sketch=1;curveFitting=1;jiggle=2;" parent="1" vertex="1">
          <mxGeometry x="262.5" y="990" width="335" height="110" as="geometry" />
        </mxCell>
        <mxCell id="ERC3TZl0UmH6vnA0-MCl-33" value="&lt;font style=&quot;font-size: 40px;&quot;&gt;Printers&lt;/font&gt;" style="text;strokeColor=none;align=center;fillColor=none;html=1;verticalAlign=middle;whiteSpace=wrap;rounded=0;fontStyle=1;strokeWidth=10;sketch=1;curveFitting=1;jiggle=2;" parent="1" vertex="1">
          <mxGeometry x="262.5" y="1260" width="335" height="110" as="geometry" />
        </mxCell>
        <mxCell id="cU2UB0Qx6bh0rX04pfWm-19" style="edgeStyle=orthogonalEdgeStyle;rounded=0;orthogonalLoop=1;jettySize=auto;html=1;entryX=0.5;entryY=0;entryDx=0;entryDy=0;fontStyle=1;fontSize=10;strokeWidth=10;sketch=1;curveFitting=1;jiggle=2;" parent="1" source="ERC3TZl0UmH6vnA0-MCl-36" target="ERC3TZl0UmH6vnA0-MCl-39" edge="1">
          <mxGeometry relative="1" as="geometry" />
        </mxCell>
        <mxCell id="ERC3TZl0UmH6vnA0-MCl-36" value="&lt;font style=&quot;font-size: 40px;&quot;&gt;WAP&lt;/font&gt;" style="text;strokeColor=none;align=center;fillColor=none;html=1;verticalAlign=middle;whiteSpace=wrap;rounded=0;fontStyle=1;strokeWidth=10;sketch=1;curveFitting=1;jiggle=2;" parent="1" vertex="1">
          <mxGeometry x="855" y="460" width="335" height="110" as="geometry" />
        </mxCell>
        <mxCell id="cU2UB0Qx6bh0rX04pfWm-29" style="edgeStyle=orthogonalEdgeStyle;rounded=0;orthogonalLoop=1;jettySize=auto;html=1;entryX=0.5;entryY=0;entryDx=0;entryDy=0;fontStyle=1;strokeWidth=10;sketch=1;curveFitting=1;jiggle=2;" parent="1" source="ERC3TZl0UmH6vnA0-MCl-37" target="ERC3TZl0UmH6vnA0-MCl-40" edge="1">
          <mxGeometry relative="1" as="geometry" />
        </mxCell>
        <mxCell id="ERC3TZl0UmH6vnA0-MCl-37" value="&lt;font style=&quot;font-size: 40px;&quot;&gt;WAP&lt;/font&gt;" style="text;strokeColor=none;align=center;fillColor=none;html=1;verticalAlign=middle;whiteSpace=wrap;rounded=0;fontStyle=1;strokeWidth=10;sketch=1;curveFitting=1;jiggle=2;" parent="1" vertex="1">
          <mxGeometry x="1495" y="440" width="335" height="110" as="geometry" />
        </mxCell>
        <mxCell id="ERC3TZl0UmH6vnA0-MCl-39" value="&lt;font style=&quot;font-size: 40px;&quot;&gt;Wireless Device&lt;/font&gt;" style="text;strokeColor=none;align=center;fillColor=none;html=1;verticalAlign=middle;whiteSpace=wrap;rounded=0;fontStyle=1;strokeWidth=10;sketch=1;curveFitting=1;jiggle=2;" parent="1" vertex="1">
          <mxGeometry x="855" y="730" width="335" height="110" as="geometry" />
        </mxCell>
        <mxCell id="ERC3TZl0UmH6vnA0-MCl-40" value="&lt;font style=&quot;font-size: 40px;&quot;&gt;Wireless Device&lt;/font&gt;" style="text;strokeColor=none;align=center;fillColor=none;html=1;verticalAlign=middle;whiteSpace=wrap;rounded=0;fontStyle=1;strokeWidth=10;sketch=1;curveFitting=1;jiggle=2;" parent="1" vertex="1">
          <mxGeometry x="1505" y="660" width="335" height="110" as="geometry" />
        </mxCell>
        <mxCell id="cU2UB0Qx6bh0rX04pfWm-21" style="edgeStyle=orthogonalEdgeStyle;rounded=0;orthogonalLoop=1;jettySize=auto;html=1;entryX=0.75;entryY=1;entryDx=0;entryDy=0;fontStyle=1;fontSize=10;strokeWidth=10;sketch=1;curveFitting=1;jiggle=2;" parent="1" source="cU2UB0Qx6bh0rX04pfWm-1" target="ERC3TZl0UmH6vnA0-MCl-39" edge="1">
          <mxGeometry relative="1" as="geometry" />
        </mxCell>
        <mxCell id="cU2UB0Qx6bh0rX04pfWm-1" value="&lt;span style=&quot;font-size: 40px;&quot;&gt;Cellphone&lt;/span&gt;" style="text;strokeColor=none;align=center;fillColor=none;html=1;verticalAlign=middle;whiteSpace=wrap;rounded=0;fontStyle=1;strokeWidth=10;sketch=1;curveFitting=1;jiggle=2;" parent="1" vertex="1">
          <mxGeometry x="1035" y="1010" width="335" height="110" as="geometry" />
        </mxCell>
        <mxCell id="cU2UB0Qx6bh0rX04pfWm-22" style="edgeStyle=orthogonalEdgeStyle;rounded=0;orthogonalLoop=1;jettySize=auto;html=1;entryX=0.25;entryY=1;entryDx=0;entryDy=0;fontStyle=1;fontSize=10;strokeWidth=10;sketch=1;curveFitting=1;jiggle=2;" parent="1" source="cU2UB0Qx6bh0rX04pfWm-2" target="ERC3TZl0UmH6vnA0-MCl-39" edge="1">
          <mxGeometry relative="1" as="geometry" />
        </mxCell>
        <mxCell id="cU2UB0Qx6bh0rX04pfWm-24" style="edgeStyle=orthogonalEdgeStyle;rounded=0;orthogonalLoop=1;jettySize=auto;html=1;entryX=0.5;entryY=0;entryDx=0;entryDy=0;fontStyle=1;fontSize=10;strokeWidth=10;sketch=1;curveFitting=1;jiggle=2;" parent="1" source="cU2UB0Qx6bh0rX04pfWm-2" target="cU2UB0Qx6bh0rX04pfWm-6" edge="1">
          <mxGeometry relative="1" as="geometry" />
        </mxCell>
        <mxCell id="cU2UB0Qx6bh0rX04pfWm-2" value="&lt;span style=&quot;font-size: 40px;&quot;&gt;Laptop&lt;/span&gt;" style="text;strokeColor=none;align=center;fillColor=none;html=1;verticalAlign=middle;whiteSpace=wrap;rounded=0;fontStyle=1;strokeWidth=10;sketch=1;curveFitting=1;jiggle=2;" parent="1" vertex="1">
          <mxGeometry x="635" y="1010" width="335" height="110" as="geometry" />
        </mxCell>
        <mxCell id="cU2UB0Qx6bh0rX04pfWm-30" style="edgeStyle=orthogonalEdgeStyle;rounded=0;orthogonalLoop=1;jettySize=auto;html=1;entryX=0.25;entryY=1;entryDx=0;entryDy=0;fontStyle=1;fontSize=10;strokeWidth=10;sketch=1;curveFitting=1;jiggle=2;" parent="1" source="cU2UB0Qx6bh0rX04pfWm-3" target="ERC3TZl0UmH6vnA0-MCl-40" edge="1">
          <mxGeometry relative="1" as="geometry" />
        </mxCell>
        <mxCell id="cU2UB0Qx6bh0rX04pfWm-32" style="edgeStyle=orthogonalEdgeStyle;rounded=0;orthogonalLoop=1;jettySize=auto;html=1;exitX=0.5;exitY=1;exitDx=0;exitDy=0;fontStyle=1;fontSize=10;strokeWidth=10;sketch=1;curveFitting=1;jiggle=2;" parent="1" source="cU2UB0Qx6bh0rX04pfWm-3" target="cU2UB0Qx6bh0rX04pfWm-5" edge="1">
          <mxGeometry relative="1" as="geometry" />
        </mxCell>
        <mxCell id="cU2UB0Qx6bh0rX04pfWm-3" value="&lt;span style=&quot;font-size: 40px;&quot;&gt;Laptop&lt;/span&gt;" style="text;strokeColor=none;align=center;fillColor=none;html=1;verticalAlign=middle;whiteSpace=wrap;rounded=0;fontStyle=1;strokeWidth=10;sketch=1;curveFitting=1;jiggle=2;" parent="1" vertex="1">
          <mxGeometry x="1345" y="870" width="335" height="110" as="geometry" />
        </mxCell>
        <mxCell id="cU2UB0Qx6bh0rX04pfWm-31" style="edgeStyle=orthogonalEdgeStyle;rounded=0;orthogonalLoop=1;jettySize=auto;html=1;entryX=0.75;entryY=1;entryDx=0;entryDy=0;fontStyle=1;fontSize=10;strokeWidth=10;sketch=1;curveFitting=1;jiggle=2;" parent="1" source="cU2UB0Qx6bh0rX04pfWm-4" target="ERC3TZl0UmH6vnA0-MCl-40" edge="1">
          <mxGeometry relative="1" as="geometry" />
        </mxCell>
        <mxCell id="cU2UB0Qx6bh0rX04pfWm-4" value="&lt;span style=&quot;font-size: 40px;&quot;&gt;Cellphone&lt;/span&gt;" style="text;strokeColor=none;align=center;fillColor=none;html=1;verticalAlign=middle;whiteSpace=wrap;rounded=0;fontStyle=1;strokeWidth=10;sketch=1;curveFitting=1;jiggle=2;" parent="1" vertex="1">
          <mxGeometry x="1695" y="870" width="335" height="110" as="geometry" />
        </mxCell>
        <mxCell id="cU2UB0Qx6bh0rX04pfWm-5" value="&lt;font style=&quot;font-size: 40px;&quot;&gt;Printers&lt;/font&gt;" style="text;strokeColor=none;align=center;fillColor=none;html=1;verticalAlign=middle;whiteSpace=wrap;rounded=0;fontStyle=1;strokeWidth=10;sketch=1;curveFitting=1;jiggle=2;" parent="1" vertex="1">
          <mxGeometry x="1505" y="1130" width="335" height="110" as="geometry" />
        </mxCell>
        <mxCell id="cU2UB0Qx6bh0rX04pfWm-6" value="&lt;font style=&quot;font-size: 40px;&quot;&gt;Printers&lt;/font&gt;" style="text;strokeColor=none;align=center;fillColor=none;html=1;verticalAlign=middle;whiteSpace=wrap;rounded=0;fontStyle=1;strokeWidth=10;sketch=1;curveFitting=1;jiggle=2;" parent="1" vertex="1">
          <mxGeometry x="835" y="1320" width="335" height="110" as="geometry" />
        </mxCell>
      </root>
    </mxGraphModel>
  </diagram>
</mxfile>
